<?xml version="1.0" encoding="UTF-8" standalone="no"?>
<!DOCTYPE svg PUBLIC "-//W3C//DTD SVG 1.1//EN" "http://www.w3.org/Graphics/SVG/1.1/DTD/svg11.dtd">
<!-- Created with Vectornator (http://vectornator.io/) -->
<svg height="1241.0pt" stroke-miterlimit="10" style="fill-rule:nonzero;clip-rule:evenodd;stroke-linecap:round;stroke-linejoin:round;" version="1.1" viewBox="0 0 2320 1241" width="2320.0pt" xml:space="preserve" xmlns="http://www.w3.org/2000/svg" xmlns:xlink="http://www.w3.org/1999/xlink">
<defs/>
<g id="Layer-2">
<g opacity="1">
<g opacity="1">
<g opacity="1">
<path d="M468.466 350.604C228.138 350.604 33.3132 545.428 33.3132 785.756C33.3132 1026.08 228.138 1220.91 468.466 1220.91C708.794 1220.91 903.618 1026.08 903.618 785.756C903.618 545.428 708.794 350.604 468.466 350.604ZM468.466 533.826C607.603 533.826 720.396 646.619 720.396 785.756C720.396 924.894 607.603 1037.69 468.466 1037.69C329.328 1037.69 216.535 924.893 216.535 785.756C216.535 646.619 329.328 533.826 468.466 533.826Z" fill="#0f254f" fill-rule="nonzero" opacity="1" stroke="none"/>
<path d="M33.3132 58.5934C33.3132 42.7824 46.1305 29.965 61.9416 29.965L187.907 29.965C203.718 29.965 216.535 42.7824 216.535 58.5934L216.535 757.128C216.535 772.939 203.718 785.756 187.907 785.756L61.9416 785.756C46.1305 785.756 33.3132 772.939 33.3132 757.128L33.3132 58.5934Z" fill="#0f254f" fill-rule="nonzero" opacity="1" stroke="none"/>
<path d="M216.535 397.202C216.535 397.202 214.188 430.546 237.404 416.952C260.621 403.357 214.236 432.553 214.236 432.553L216.535 397.202Z" fill="#0f254f" fill-rule="nonzero" opacity="1" stroke="none"/>
<path d="M33.3132 29.9548L79.1187 29.965L33.3132 75.7705" fill="#0f254f" fill-rule="nonzero" opacity="1" stroke="none"/>
</g>
</g>
</g>
</g>
<g id="Layer-3">
<g opacity="1">
<path d="M1636.51 1220.91L1636.51 670.286C1636.51 658.165 1602.82 648.34 1590.7 648.34L1475.23 648.34C1463.11 648.34 1453.28 658.165 1453.28 670.286L1453.28 1060.59L1453.28 1129.3C1453.28 1129.3 1453.28 1198.01 1636.51 1220.91Z" fill="#0f254f" fill-rule="nonzero" opacity="1" stroke="none"/>
<path d="M1247.16 671.242C1041.03 671.938 926.521 794.289 926.521 946.076C926.521 1097.86 1041.03 1243.81 1247.16 1220.91C1453.28 1198.01 1499.09 1097.86 1499.09 946.076C1499.09 794.289 1453.28 670.547 1247.16 671.242ZM1270.06 785.756C1292.65 785.552 1315.77 785.475 1338.77 785.756C1375.59 786.207 1410.5 789.45 1430.38 808.659C1453.28 830.785 1452.77 859.83 1448.97 883.661C1434.16 976.704 1384.58 1060.59 1270.06 1060.59C1155.55 1060.59 1109.74 1002.33 1109.74 930.473C1109.74 858.618 1189.06 786.487 1270.06 785.756Z" fill="#0f254f" fill-rule="nonzero" opacity="1" stroke="none"/>
<path d="M1635.84 739.424L1636.27 671.342C1636.27 671.342 1655.03 386.317 1338.81 352.127C1221.97 339.494 1181.78 354.97 1130.95 370.384C1044.19 396.689 997.111 436.65 997.111 436.65L1078.28 564.255C1078.28 564.255 1143.33 524.553 1222 510.708C1294.91 497.879 1379.67 507.844 1431.38 577.7C1451.18 604.447 1451.54 620.628 1453.19 643.884C1453.19 712.592 1453.28 739.951 1453.28 739.951C1453.28 739.951 1635.84 739.424 1635.84 739.424Z" fill="#0f254f" fill-rule="nonzero" opacity="1" stroke="none"/>
<path d="M1453.45 670.134C1453.45 670.134 1450.32 687.297 1435.28 690.121C1430.62 690.997 1404.76 681.265 1369.06 677.23C1318.44 671.506 1253.44 670.73 1247.75 671.817C1238.05 673.67 1476.2 785.564 1476.2 785.564L1453.45 670.134Z" fill="#0f254f" fill-rule="nonzero" opacity="1" stroke="none"/>
</g>
</g>
<g id="Layer-4">
<path d="M1656.68 1108C1656.68 1108 1796.83 1220.91 1980.05 1220.91C2163.27 1220.91 2300.69 1129.3 2300.69 946.076C2300.69 762.853 2140.37 739.951 2094.56 717.048C2048.76 694.145 1934.24 671.242 1888.44 648.34C1842.63 625.437 1819.73 556.729 1911.34 510.923C1947.52 492.834 1985.64 498.773 2015.17 503.013C2061.36 512.707 2089.75 519.968 2117.46 533.826C2163.27 556.729 2188.9 571.222 2188.9 571.222L2270.51 432.216C2270.51 432.216 2163.27 327.701 1911.34 350.604C1659.41 373.506 1674.1 572.577 1673.79 598.57C1673.49 624.564 1642.94 793.838 2029.15 875.392C2081.56 899.015 2123.61 899.401 2121.42 988.919C2112.3 1027.66 2066.69 1059.18 2025.82 1059.11C1984.95 1059.05 1878.89 1076.54 1747.79 967.715C1713.35 1038.66 1656.68 1108 1656.68 1108Z" fill="#0f254f" fill-rule="nonzero" opacity="1" stroke="none"/>
</g>
<g id="Layer-5">
<path d="M339.638 785.756C339.638 714.606 397.316 656.928 468.466 656.928C539.615 656.928 597.294 714.606 597.294 785.756C597.294 856.906 539.615 914.584 468.466 914.584C397.316 914.584 339.638 856.906 339.638 785.756Z" fill="#32c8cd" fill-rule="nonzero" opacity="1" stroke="#007aff" stroke-linecap="butt" stroke-linejoin="round" stroke-opacity="0.495247" stroke-width="0.0114514"/>
</g>
</svg>
